<svg xmlns="http://www.w3.org/2000/svg" style="isolation:isolate" viewBox="-10 -10 130 50" width="130" height="50"><defs><clipPath id="a"><path d="M0 0h110v30H0z"/></clipPath></defs><g clip-path="url(#a)"><path fill="none" d="M0 0h110v30H0z"/><path d="M28.53 7.2h-1.924v16.166h1.924v-6.611q0-.793.216-1.461.215-.668.645-1.166.43-.498 1.075-.769.646-.272 1.529-.272 1.109 0 1.743.634.634.634.634 1.72v7.925h1.924v-7.698q0-.951-.192-1.732-.193-.781-.668-1.347-.475-.566-1.245-.883-.77-.317-1.925-.317-.52 0-1.075.113-.555.113-1.064.351-.51.238-.917.611-.408.374-.634.917h-.046V7.2zm20.243 12.081v-1.96q-.362.27-.95.394-.589.124-1.234.203-.646.079-1.302.18-.657.101-1.178.327-.52.225-.849.642-.328.417-.328 1.138 0 .473.193.799.192.327.498.53.305.203.713.293.407.09.86.09.951 0 1.63-.259.68-.259 1.11-.654.43-.394.634-.856.203-.462.203-.867zM58.488 7.2h-1.924v16.166h1.924v-4.438l1.812-1.675 4.007 6.113h2.445l-4.981-7.449 4.642-4.257h-2.581l-5.344 5.117V7.2zm13.26 10.324q0-1.064.283-1.89.283-.826.781-1.392.498-.566 1.166-.861.668-.294 1.415-.294t1.415.294q.668.295 1.166.861.498.566.781 1.392.283.826.283 1.89 0 1.065-.283 1.891-.283.826-.781 1.381-.498.555-1.166.849-.668.294-1.415.294t-1.415-.294q-.668-.294-1.166-.849-.498-.555-.781-1.381-.283-.826-.283-1.891zm15.951 0q0-1.064.283-1.89.283-.826.781-1.392.499-.566 1.166-.861.668-.294 1.416-.294.747 0 1.415.294.667.295 1.166.861.498.566.781 1.392.283.826.283 1.89 0 1.065-.283 1.891-.283.826-.781 1.381-.499.555-1.166.849-.668.294-1.415.294-.748 0-1.416-.294-.667-.294-1.166-.849-.498-.555-.781-1.381-.283-.826-.283-1.891zm19.552-5.864h-2.332V8.151h-1.925v3.509h-1.992v1.699h1.992v7.448q0 .815.159 1.314.158.498.487.769.328.272.86.374.532.102 1.279.102h1.472v-1.698h-.883q-.453 0-.736-.034t-.442-.147q-.158-.114-.215-.317-.056-.204-.056-.544v-7.267h2.332V11.66zM51.898 21.826v1.495q-.498.294-1.381.294-.747 0-1.189-.419-.441-.419-.441-1.37-.793.951-1.846 1.37-1.052.419-2.275.419-.792 0-1.506-.181-.713-.181-1.233-.566-.521-.385-.827-1.008-.306-.622-.306-1.505 0-.997.34-1.631t.894-1.03q.555-.396 1.268-.6.713-.203 1.461-.339.792-.159 1.505-.238.713-.079 1.257-.226.543-.148.86-.431.317-.283.317-.826 0-.634-.238-1.019-.237-.385-.611-.589-.373-.203-.838-.271-.464-.068-.917-.068-1.222 0-2.037.464t-.883 1.755h-1.925q.046-1.087.453-1.834.408-.747 1.087-1.212.679-.464 1.551-.667.871-.204 1.868-.204.792 0 1.573.113.781.113 1.415.463.634.35 1.019.983.385.632.385 1.649v6.009q0 .678.079.994.079.317.532.317.249 0 .589-.091zm17.812-4.302q0 1.291.362 2.4.363 1.11 1.087 1.936.725.827 1.789 1.291 1.064.464 2.445.464 1.404 0 2.457-.464 1.052-.464 1.777-1.291.724-.826 1.087-1.936.362-1.109.362-2.4 0-1.29-.362-2.411-.363-1.121-1.087-1.947-.725-.826-1.777-1.302-1.053-.475-2.457-.475-1.381 0-2.445.475-1.064.476-1.789 1.302-.724.826-1.087 1.947-.362 1.121-.362 2.411zm15.952 0q0 1.291.362 2.4.362 1.11 1.087 1.936.724.827 1.788 1.291 1.064.464 2.446.464 1.403 0 2.456-.464t1.777-1.291q.725-.826 1.087-1.936.362-1.109.362-2.4 0-1.29-.362-2.411t-1.087-1.947q-.724-.826-1.777-1.302-1.053-.475-2.456-.475-1.382 0-2.446.475-1.064.476-1.788 1.302-.725.826-1.087 1.947t-.362 2.411zM18.865 6.065h-3.836l-1.13-1.1H8.324l-1.115 1.1H3.374a.63.63 0 00-.625.625v.996c0 .342.283.624.625.624H18.85a.627.627 0 00.624-.624V6.69a.598.598 0 00-.609-.625zM4.622 22.85a2.19 2.19 0 002.186 2.185h8.726a2.189 2.189 0 002.186-2.185l.654-13.574H3.879l.743 13.574z" fill-rule="evenodd" fill="#fff"/></g></svg>