<svg xmlns="http://www.w3.org/2000/svg" viewBox="0 0 284 56"><path fill="#32323C" d="M270 22.5l-9.8 9 9.8 9v5.2h-.3l-14.6-13.3V45h-4.2V6.8h4.2v23.9l14.6-13.2h.4v5zM78.9 45h21.6v-4.3H83.3V8.1h-4.4V45zm36.6-27.5c-6.6 0-12.7 5.4-12.7 14.1 0 8.4 5.5 14 13.5 14 3.5 0 6.8-.9 9.8-3V38c-3.1 2.6-6.5 3.7-9.6 3.7-4.8 0-9-3-9.4-8.5h20.2c0-.5.2-1.7.2-2.2-.1-8.9-5.5-13.5-12-13.5zm0 3.8c3.7 0 7.6 2.4 7.7 8.2H107c.3-4.5 3.7-8.2 8.5-8.2zm71.1-3.8c-3.6 0-6.2 1.9-7.7 4.7-1.3-3-3.7-4.7-7.5-4.7-3.3 0-5.8 1.9-7.2 4.5h-.2l-.5-4h-3.3v27h4.3V28c0-3.3 2-6.4 5.8-6.4 3.6 0 5.2 2.1 5.2 6V45h4.3V27.7c0-3.1 2.1-6.1 5.7-6.1 3.7 0 5.3 2.1 5.3 6V45h4.3V27c.1-5.6-2.6-9.5-8.5-9.5zm25.9 0c-6.4 0-12.4 5.4-12.4 14.1 0 8.5 6 14 12.4 14 4 0 7.8-1.9 9.9-5.6h.1l.5 5h3.5V18H223l-.5 5h-.1c-2-3.6-5.8-5.5-9.9-5.5zm.8 4c5.1 0 8.9 4.1 8.9 10s-3.8 10-8.9 10c-5 0-8.9-4-8.9-10s3.9-10 8.9-10zm31.5-3.8c-2.3 0-5.9 1.1-7.7 4.6l-.4-4.3h-3.4v27h4.3V29.5c0-6.2 5-8.2 9.2-7.3v-4.3c-.8-.1-1.3-.2-2-.2zm-90.1-.3h-.3l-11.3 11.2-11.2-11.2h-.3v5.4l8.7 8.7-8.7 8.6v5.5h.3L143 34.4l11.3 11.3h.4v-5.5l-8.7-8.7 8.7-8.8v-5.3zM272.1 7.1v-.6h4.5v.6h-1.9v4.5h-.7V7.1h-1.9zm6.7-.6l1.9 4.3 1.9-4.3h.9v5.1h-.5V7.3l-1.9 4.2h-.6l-1.9-4.2v4.2h-.6v-5h.8z"/><path fill="#008A44" d="M55.7 45.2V.4H44.8L27.9 17.3z"/><path fill="#3AF23A" d="M0 11.3v44.8h10.9l16.9-17z"/><path fill="#006446" d="M10.9 56.1h44.8V45.2l-16.9-17z"/><path fill="#00C425" d="M44.8.4H0v10.9l16.9 16.9z"/></svg>