<svg version="1.1" id="Layer_1" xmlns="http://www.w3.org/2000/svg" x="0" y="0" viewBox="0 0 150 150" xml:space="preserve"><style>.st0{fill:#fff}</style><circle class="st0" cx="74.6" cy="61.1" r="46.8"/><circle cx="74.6" cy="61.1" r="45.5" fill="#f36e44"/><path class="st0" d="M96.8 82c-1.5-1.7-3.4-6.6-3.4-6.6 4.7-8.4 16.5-11.6 16.5-11.6-4.1-3.8-16.4-6.2-16.4-6.2-.6.4-3.7 4.6-3.7 4.6-.2-1.9-2.6-6.6-3-7.4 2.8-1.4 5.1-3.8 5.6-7.8.8-6.3 3.6-9 5.9-10.1.6-.3 1.2-.5 1.9-.7.4-.1.9-.2 1.5-.2h.1c-1-.9-2-1.3-3-1.5-4.2-.7-7.8 3.8-7.8 3.8-.1 0-.2-.1-.4-.1-.1 0-.2-.1-.3-.1-1.5-.5-4.7-1.2-7.3.1-.5.3-1 .6-1.5 1.1l-.1.1c-.1.1-.2.3-.4.4l-.1.1c-.1.1-.2.2-.3.4 0 .1-.1.1-.1.2-.1.1-.1.3-.2.4 0 .1-.1.2-.1.2-.1.2-.1.3-.2.5 0 .1-.1.2-.1.2-.1.2-.1.4-.2.6 0 .1 0 .1-.1.2 0 0 0-.1-.1-.1-.2-.2-.4-.5-.6-.7-.1-.1-.3-.2-.4-.3-.1-.1-.2-.2-.3-.2-.2-.1-.4-.3-.6-.4l-.1-.1c-.2-.1-.5-.3-.7-.4-1-.4-2.1-.7-3.1-.6h-.2c-.3 0-.5.1-.8.1-.1 0-.2.1-.3.1-.1 0-.2.1-.3.1-.1 0-.3.1-.4.1-.1 0-.1 0-.2.1-.2.1-.3.1-.4.2 0 0-.1 0-.1.1-.5.3-1 .7-1.5 1.1-.3.3-.5.5-.7.9 0 0 0 .1-.1.1 0 .1-.1.1-.1.2-1.4 2.9-.1 6.9-.1 6.9-2 .3-3.6 1.6-3.9 2-2.6-1.9-3.3-4.8-3.4-6.6-.1-.8.1-1.7.4-2.5.1-.2.2-.5.4-.7 2.2-3.1 6 .1 6.7.7v-.1c-.2-1.2-.6-2.1-1.1-2.8-2.9-3.6-9.9-1.2-9.9-1.2s-.4-.5-1-1.1c-1.8-1.7-5.9-4.6-9.9-1.2h.4c1.5.1 7.2.8 8.8 9.3.1.5.2 1 .3 1.6.5 4.1 2.9 6.5 5.9 7.9-.5 1-2 4-2.6 6-.1.5-.2.9-.3 1.2 0 0-1.6-2.2-2.7-3.6-.4-.5-.8-.9-1-1.1-.8.2-12.3 2.5-16.3 6.2 0 0 .1 0 .4.1 2.1.6 11.9 4 16 11.5 0 0-.5 1.3-1.2 2.7v.1l-.6 1.2c-.5 1-1.1 2-1.6 2.6-.4.4-.4.9-.2 1.3v.1l.1.1.1.1c0 .1.1.1.1.2l.2.2.1.1c1.1 1.1 6 2 7.7 2.3 2.6.4 5.5.9 5.8 1 0 0-5.1-7.6-4-15.7 0 0 .1-.7.3-1.8.3-1 .7-2.4 1.6-3.8 1.7-2.9-2.4-4-2.4-4V61s3.5 3.1 11.9 3.4h1.2c8.4-.3 11.7-3.4 11.7-3.4v1.2s-3.9 1.1-2.2 4c1.7 2.9 2.2 5.6 2.2 5.6.3 2.4.1 4.7-.3 6.8-1.1 5.1-3.6 8.9-3.6 8.9.4-.1 14.6-3.3 14.3-5 .2-.1.1-.3-.1-.5zm-13-30.1c-.9-.7-2.5-1.9-4.1-2.2.3 0 .7-3.1.7-3.4.1-1.3-.1-2.6-.7-3.6.7-.6 4.9-3.9 7.1-.6.6.8.7 1.9.7 2.9-.1 1.9-.8 5-3.7 6.9zM16.2 128.8c.5-.4 1.1-.9 1.7-1.5.7-.6 1.3-1.2 2-1.9.7-.6 1.4-1.2 2-1.8.6-.6 1.1-1.1 1.6-1.5h-6c-.5 0-.8-.1-1-.3-.2-.2-.3-.5-.3-.9 0-.3 0-.5.1-.7.1-.2.1-.4.2-.5h9.2c.4 0 .8.1 1 .3.3.2.4.5.4.9 0 .3-.1.6-.2.8-.1.2-.4.6-.8.9l-.9.9c-.4.3-.7.7-1.1 1.1-.4.4-.8.8-1.3 1.2-.4.4-.9.8-1.3 1.1-.4.4-.8.7-1.1 1-.4.3-.7.6-.9.8h7.6v2.3H16.2v-2.2zM38.6 130.2c-.1.1-.3.2-.6.3-.3.1-.6.3-1 .4-.4.1-.8.2-1.3.3-.5.1-1.1.1-1.7.1-.8 0-1.6-.1-2.4-.4-.7-.3-1.4-.6-1.9-1.1-.5-.5-1-1.1-1.3-1.8-.3-.7-.5-1.6-.5-2.5 0-.9.2-1.7.5-2.5.3-.7.7-1.4 1.3-1.9.5-.5 1.2-.9 1.9-1.2.7-.3 1.6-.4 2.4-.4.8 0 1.5.1 2.1.3.6.2 1.1.5 1.5.8.4.3.7.7.9 1.2.2.5.3.9.3 1.4 0 .5-.1 1-.3 1.4-.2.4-.5.8-1 1.1-.5.3-1.2.5-2 .7-.8.2-1.9.3-3.2.3h-1.6c.1.8.5 1.4 1.1 1.9.6.5 1.5.7 2.7.7.4 0 .8 0 1.1-.1.3-.1.6-.1.9-.2.3-.1.5-.2.7-.3.2-.1.3-.2.4-.2l1 1.7zm-7.9-5.3h1.9c.8 0 1.5-.1 2-.2s.9-.2 1.2-.4c.3-.2.5-.4.6-.6.1-.2.1-.4.1-.7 0-.6-.2-1-.7-1.3-.5-.3-1-.4-1.7-.4-.6 0-1 .1-1.5.3-.4.2-.8.5-1.1.8-.3.3-.5.7-.7 1.1 0 .5-.1.9-.1 1.4zM40.9 124.2c0-.8.1-1.4.4-2 .3-.6.7-1.1 1.1-1.5.5-.4 1.1-.7 1.7-.9.7-.2 1.4-.3 2.2-.3.8 0 1.5.1 2.2.3.7.2 1.3.5 1.7.9.5.4.9.9 1.1 1.5.3.6.4 1.3.4 2v6.8h-2.6v-6.2c0-1-.2-1.8-.7-2.3-.5-.5-1.2-.8-2.2-.8-1 0-1.7.3-2.2.8-.5.5-.7 1.3-.7 2.3v6.2h-2.6v-6.8zM53.7 122c-.1-.2-.2-.4-.3-.7-.1-.3-.2-.5-.2-.7 0-.2.1-.4.2-.5.1-.1.3-.2.6-.2h.4c.1 0 .2.1.2.1.3.9.7 1.8 1.1 2.7.4.9.8 1.8 1.2 2.6l1.2 2.4c.4.7.7 1.4 1 2 .5-.9 1-1.9 1.4-2.9.5-1 .9-1.9 1.3-2.8.4-.9.7-1.6 1-2.2.3-.6.4-1 .5-1.1.1-.3.2-.5.4-.6.1-.1.3-.2.6-.2.2 0 .4 0 .6.1.1.1.2.2.3.2-.1.4-.3.8-.5 1.4-.2.5-.5 1.1-.8 1.8-.3.6-.6 1.3-1 2-.3.7-.7 1.4-1 2.1-.3.7-.7 1.3-1 1.9-.3.6-.6 1.2-.9 1.6h-1.6c-.3-.6-.7-1.4-1.2-2.2-.5-.8-.9-1.7-1.3-2.6-.4-.9-.8-1.7-1.2-2.4-.5-.7-.8-1.4-1-1.8zM67.7 126.4c.2 1.2.6 2 1.4 2.7.8.6 1.8.9 3.2.9.8 0 1.4-.1 1.9-.3.5-.2.9-.4 1.2-.6l.7 1.1c-.1.1-.3.2-.5.3-.2.1-.5.3-.9.4-.3.1-.7.2-1.2.3-.4.1-.9.1-1.4.1-.8 0-1.6-.1-2.3-.4-.7-.2-1.4-.6-1.9-1.1-.5-.5-1-1.1-1.3-1.8-.3-.7-.5-1.5-.5-2.5 0-.9.1-1.7.5-2.5.3-.7.7-1.4 1.3-1.9.5-.5 1.2-.9 1.9-1.2.7-.3 1.6-.4 2.4-.4.8 0 1.4.1 2 .3.6.2 1 .4 1.4.7.4.3.7.7.8 1.1.2.4.3.9.3 1.4 0 .5-.1.9-.3 1.4-.2.4-.5.8-1 1.1-.5.3-1.1.5-2 .7-.8.2-1.8.3-3.1.3H69c-.5 0-.9 0-1.3-.1zm-.1-1.1c.4 0 .8 0 1.2.1H70c1 0 1.9-.1 2.5-.2.7-.1 1.2-.3 1.6-.5.4-.2.6-.5.8-.7.1-.3.2-.6.2-.9 0-.4-.1-.8-.3-1.1-.2-.3-.4-.5-.7-.7-.3-.2-.6-.3-1-.4-.4-.1-.7-.1-1.1-.1-.7 0-1.3.1-1.9.4s-1 .6-1.4 1c-.4.4-.7.9-.9 1.4 0 .5-.2 1.1-.2 1.7zM87.7 131v-6.2c0-1.2-.3-2.2-.9-2.9-.6-.7-1.6-1-2.8-1s-2.2.3-2.8 1c-.6.7-.9 1.7-.9 2.9v6.2h-1.5v-6.7c0-.7.1-1.4.4-1.9.2-.6.6-1.1 1-1.5.5-.4 1-.7 1.6-1 .6-.2 1.4-.3 2.2-.3.8 0 1.5.1 2.2.3.7.2 1.2.6 1.7 1s.8.9 1 1.5c.2.6.4 1.2.4 1.9v6.7h-1.6zM93.6 121.3v6.5c0 .8.2 1.4.7 1.8.4.3 1 .5 1.7.5.5 0 .9-.1 1.3-.2s.7-.3.9-.4l.7 1c-.1.1-.2.2-.4.3-.2.1-.4.2-.7.3l-.9.3c-.4.1-.7.1-1.2.1-.6 0-1.1-.1-1.6-.2-.4-.2-.8-.4-1.1-.7-.3-.3-.5-.6-.6-1-.1-.4-.2-.8-.2-1.3v-10.4c0-.2.1-.4.2-.6.1-.1.3-.2.6-.2.1 0 .3 0 .4.1.1 0 .2.1.3.1v2.9h4c.3 0 .5.1.7.2.1.1.2.3.2.5v.3c0 .1-.1.2-.1.3h-4.9zM111.2 125.5c0 .8-.2 1.6-.5 2.3-.3.7-.7 1.3-1.2 1.9-.5.5-1.2 1-1.9 1.3-.7.3-1.5.5-2.4.5-.9 0-1.7-.2-2.4-.5s-1.4-.7-1.9-1.3c-.5-.5-.9-1.2-1.2-1.9-.3-.7-.5-1.5-.5-2.3 0-.8.1-1.6.5-2.3.3-.7.7-1.3 1.2-1.9.5-.5 1.2-.9 1.9-1.2.7-.3 1.5-.5 2.4-.5.9 0 1.7.2 2.4.5s1.4.7 1.9 1.2.9 1.2 1.2 1.9c.3.7.5 1.4.5 2.3zm-1.6 0c0-.6-.1-1.2-.3-1.8-.2-.6-.5-1.1-.9-1.5-.4-.4-.9-.7-1.4-1-.5-.2-1.1-.3-1.8-.3s-1.3.1-1.8.3c-.5.2-1 .6-1.4 1-.4.4-.7.9-.9 1.5-.2.6-.3 1.2-.3 1.8 0 .6.1 1.2.3 1.8.2.6.5 1.1.9 1.5.4.4.8.7 1.4 1 .5.2 1.1.4 1.8.4s1.3-.1 1.8-.4c.5-.2 1-.6 1.4-1 .4-.4.7-.9.9-1.5.2-.6.3-1.2.3-1.8zM121 120.7c0 .2 0 .3-.1.4-.1.1-.2.2-.2.3-.3-.1-.6-.2-1-.3-.4-.1-.8-.2-1.4-.2-.6 0-1.1.1-1.5.2-.4.2-.7.4-1 .7-.3.3-.4.7-.5 1.1-.1.4-.2.9-.2 1.5v6.6h-1.5v-7.3c0-1.3.4-2.3 1.2-3 .8-.7 1.9-1.1 3.4-1.1.8 0 1.5.1 2 .3.5.1.8.4.8.8zM133 130.2c0 1-.1 1.8-.4 2.5-.3.7-.7 1.3-1.1 1.7-.5.5-1.1.8-1.8 1-.7.2-1.5.3-2.4.3-1.1 0-2.1-.1-2.8-.3-.7-.2-1.3-.3-1.6-.5l.4-1.2c.3.1.8.3 1.4.4.7.2 1.5.2 2.5.2.6 0 1.1-.1 1.6-.2s1-.3 1.4-.6c.4-.3.7-.7.9-1.2.2-.5.3-1.2.3-2v-1c-.3.6-.8 1-1.5 1.4s-1.5.5-2.5.5c-1.6 0-2.9-.4-3.8-1.3-.9-.9-1.3-2-1.3-3.5v-5.9c0-.2.1-.4.2-.6.1-.1.3-.2.6-.2.1 0 .3 0 .4.1.1 0 .2.1.3.1v6.2c0 1.2.3 2.1.9 2.8.6.7 1.5 1 2.8 1 1.3 0 2.3-.4 2.9-1.1.6-.7.9-1.7.9-2.9v-5.4c0-.2.1-.4.2-.6.1-.1.3-.2.6-.2.1 0 .3 0 .4.1.1 0 .2.1.3.1v10.3z"/></svg>